<!DOCTYPE svg PUBLIC "-//W3C//DTD SVG 20010904//EN" "http://www.w3.org/TR/2001/REC-SVG-20010904/DTD/svg10.dtd">
<svg version="1.0" xmlns="http://www.w3.org/2000/svg" width="1200px" height="600px" viewBox="0 0 12000 6000" preserveAspectRatio="xMidYMid meet">
<g id="layer101" fill="#ffffff" stroke="none">
 <path d="M3515 5780 c-17 -19 -17 -74 -6 -1297 11 -1211 23 -1943 37 -2242 5 -97 4 -132 -5 -127 -6 4 -66 80 -133 168 -221 291 -410 492 -677 718 -204 174 -343 289 -378 313 l-33 22 0 105 c0 58 -7 179 -15 270 -62 703 -203 1028 -486 1121 -66 21 -92 24 -229 24 -130 -1 -168 -5 -235 -23 -114 -33 -210 -86 -280 -157 -69 -68 -85 -107 -85 -204 0 -195 147 -367 666 -779 165 -131 344 -272 397 -311 54 -40 101 -80 106 -89 10 -18 19 -339 26 -887 2 -187 7 -367 10 -400 3 -33 9 -193 15 -355 6 -162 15 -367 22 -454 10 -137 14 -162 32 -183 19 -22 24 -23 48 -13 35 16 45 47 53 150 9 120 24 189 46 211 14 14 19 31 17 52 -3 27 -7 32 -28 31 -14 -1 -32 -4 -41 -8 -15 -7 -17 61 -16 848 0 471 4 856 8 856 26 0 394 -315 544 -466 289 -290 550 -613 639 -790 l35 -71 21 -259 c11 -142 24 -279 30 -304 5 -25 16 -100 25 -168 29 -223 88 -417 149 -489 22 -26 35 -33 65 -33 41 0 65 20 97 80 28 52 25 343 -5 487 -22 106 -124 410 -191 568 -21 50 -43 115 -48 145 -15 75 -30 406 -37 805 -4 182 -10 355 -15 385 -5 30 -14 530 -20 1110 -13 1333 -17 1581 -26 1605 -19 55 -66 71 -99 35z m-1755 -1068 c127 -42 208 -142 273 -339 54 -162 101 -471 122 -803 7 -101 6 -104 -12 -89 -10 9 -151 119 -313 244 -332 257 -461 365 -510 427 -19 24 -56 66 -82 93 -160 172 -150 341 26 424 139 65 369 86 496 43z m2049 -3512 c34 -137 54 -285 49 -370 l-3 -55 -23 70 c-24 72 -66 323 -77 455 -5 68 -4 73 9 50 7 -14 28 -81 45 -150z"/>
 <path d="M8470 5723 c-60 -50 -77 -111 -114 -413 -41 -324 -45 -402 -56 -1010 -6 -322 -13 -644 -16 -717 l-6 -131 -110 96 c-293 257 -464 361 -656 398 -149 29 -295 -16 -381 -115 -65 -76 -81 -111 -95 -204 l-11 -80 -43 36 c-119 100 -267 177 -339 177 -100 0 -152 -73 -162 -229 l-6 -96 -91 115 c-118 148 -197 223 -276 260 -129 61 -191 22 -192 -121 -1 -60 4 -75 52 -173 131 -264 350 -477 507 -493 50 -5 56 -4 84 25 27 27 31 37 31 87 0 65 -13 95 -40 95 -14 0 -20 -7 -20 -22 0 -40 -12 -68 -28 -68 -26 0 -172 156 -244 260 -66 97 -148 231 -148 243 0 4 4 7 8 7 12 0 169 -162 247 -255 92 -110 132 -145 166 -145 47 0 63 36 56 123 -7 79 5 199 24 240 7 15 20 29 30 32 38 12 160 -59 320 -187 80 -64 87 -73 113 -141 85 -219 246 -379 397 -393 76 -7 116 15 152 86 25 49 28 62 22 115 -16 157 -154 324 -351 426 -41 22 -86 39 -100 39 -35 0 -39 21 -14 78 26 61 50 84 115 114 108 49 273 22 456 -73 62 -32 338 -232 498 -359 l31 -26 -15 -674 c-8 -371 -15 -684 -15 -695 0 -14 -10 -24 -30 -32 -38 -14 -38 -32 -1 -97 39 -68 49 -123 66 -360 16 -215 29 -321 44 -374 9 -29 8 -32 -7 -28 -9 3 -69 14 -132 25 -215 38 -425 84 -703 152 -153 38 -287 69 -298 69 -25 0 -24 17 2 25 31 10 22 56 -15 74 -16 7 -106 20 -201 28 -190 16 -227 11 -233 -34 -4 -30 48 -64 174 -113 224 -88 790 -238 1249 -331 110 -23 200 -42 201 -42 0 -1 8 -40 18 -87 26 -122 79 -293 124 -398 88 -201 179 -285 239 -219 61 66 56 203 -18 521 -17 70 -27 131 -24 134 3 4 160 -13 348 -36 188 -23 368 -45 399 -48 52 -6 59 -9 82 -45 42 -63 130 -144 187 -172 64 -32 135 -35 195 -8 48 22 108 88 129 145 l16 41 134 2 c173 3 265 23 300 65 30 36 31 57 4 92 -27 34 -72 35 -94 2 -14 -21 -26 -24 -123 -33 -59 -5 -125 -7 -147 -5 l-41 4 8 81 c12 112 -6 320 -42 499 -100 488 -314 970 -663 1493 -103 154 -152 218 -259 338 -59 66 -91 111 -100 140 -9 30 -13 129 -13 357 0 309 19 927 28 937 3 2 12 -22 21 -54 163 -585 241 -792 454 -1220 154 -310 214 -384 325 -399 43 -6 49 -4 74 23 41 44 67 130 118 388 68 342 99 431 170 493 104 92 277 -15 573 -353 229 -261 253 -285 289 -285 41 0 68 35 58 78 -13 61 -398 487 -555 614 -191 155 -345 170 -469 47 -105 -105 -215 -420 -251 -719 -19 -160 -14 -153 -70 -93 -145 158 -351 656 -534 1293 -72 253 -120 462 -136 595 -6 50 -15 105 -20 124 -20 74 -85 104 -128 59 -38 -42 -37 -33 -94 -843 -27 -378 -32 -1077 -10 -1320 77 -838 254 -1590 498 -2114 24 -52 44 -95 44 -97 0 -2 -19 -1 -42 1 -24 3 -191 19 -373 36 -181 17 -333 34 -336 37 -4 4 -46 122 -95 262 -70 201 -88 265 -87 305 2 40 -3 56 -25 85 -25 33 -27 42 -36 210 -5 96 -10 634 -10 1195 -1 892 1 1046 17 1225 9 113 33 415 52 672 22 287 43 506 55 568 24 121 24 140 6 185 -18 42 -25 43 -66 8z m-1212 -2235 c89 -42 215 -167 260 -257 42 -83 44 -150 7 -187 -29 -29 -44 -27 -115 14 -107 61 -200 196 -234 337 -30 124 -30 125 -6 125 12 0 52 -14 88 -32z m1987 -508 c355 -534 594 -1108 681 -1636 17 -102 27 -445 14 -457 -3 -2 -66 1 -140 9 -74 7 -149 13 -166 13 -30 1 -34 6 -93 123 -70 142 -153 352 -205 518 -147 475 -258 1088 -281 1560 l-6 125 46 -50 c26 -27 93 -120 150 -205z m643 -2229 c22 -12 -32 -61 -66 -61 -29 0 -112 51 -112 69 0 10 157 3 178 -8z"/>
 <path d="M4785 4497 c-19 -19 -36 -48 -40 -68 -5 -28 45 -592 71 -794 l7 -50 -123 164 c-155 207 -252 306 -350 355 -78 39 -112 44 -163 22 -114 -47 -153 -204 -144 -580 9 -381 67 -684 139 -730 14 -8 22 -6 40 12 18 17 23 36 26 93 5 77 -4 94 -44 84 -20 -4 -22 2 -35 93 -9 63 -14 191 -14 367 0 240 3 282 23 380 22 109 44 157 76 163 32 7 107 -40 179 -112 90 -90 185 -216 314 -418 l101 -156 21 -219 c31 -315 48 -398 94 -465 16 -24 25 -28 66 -28 86 0 103 55 46 142 -55 83 -88 312 -102 708 l-6 165 65 -80 c97 -119 127 -148 318 -317 285 -251 372 -317 486 -370 115 -54 214 -39 214 33 0 42 -42 84 -115 113 -35 14 -103 56 -152 93 -98 76 -389 354 -532 507 -219 237 -282 379 -300 680 -9 161 -20 200 -63 230 -35 25 -67 19 -103 -17z"/>
 <path d="M4170 2450 c-26 -26 -25 -39 3 -81 33 -49 70 -64 118 -50 21 6 40 15 43 19 9 14 -15 90 -35 111 -27 29 -101 29 -129 1z"/>
 </g>

</svg>