<!DOCTYPE svg PUBLIC "-//W3C//DTD SVG 20010904//EN" "http://www.w3.org/TR/2001/REC-SVG-20010904/DTD/svg10.dtd">
<svg version="1.0" xmlns="http://www.w3.org/2000/svg" width="504px" height="504px" viewBox="0 0 5040 5040" preserveAspectRatio="xMidYMid meet">
<g id="layer101" fill="#ffffff" stroke="none">
 <path d="M1689 5029 c-301 -8 -432 -21 -589 -55 -278 -62 -493 -176 -675 -359 -224 -223 -355 -519 -395 -890 -38 -362 -38 -2048 0 -2410 40 -371 171 -667 395 -890 223 -224 519 -355 890 -395 362 -38 2048 -38 2410 0 371 40 667 171 890 395 224 223 355 519 395 890 39 363 38 2038 0 2400 -31 282 -111 517 -243 715 -64 96 -241 273 -337 337 -198 132 -433 212 -715 243 -252 27 -1388 38 -2026 19z m1656 -449 c289 -11 382 -20 513 -51 180 -42 317 -116 436 -235 150 -149 230 -331 265 -599 41 -309 41 -2041 0 -2350 -35 -268 -115 -450 -265 -599 -146 -146 -311 -222 -568 -261 -178 -26 -697 -38 -1441 -32 -385 3 -760 11 -834 17 -341 27 -532 101 -706 275 -174 174 -248 365 -275 706 -17 210 -24 1483 -11 1855 15 410 37 559 107 727 82 195 258 367 457 447 158 63 312 88 627 99 320 12 1386 12 1695 1z"/>
 <path d="M2307 3795 c-261 -43 -503 -169 -698 -364 -249 -249 -379 -561 -379 -911 0 -350 130 -662 379 -911 249 -249 561 -379 911 -379 350 0 662 130 911 379 200 200 323 440 365 713 19 125 14 334 -11 453 -106 507 -497 899 -1005 1010 -106 23 -361 28 -473 10z m453 -470 c146 -47 232 -98 339 -199 110 -105 175 -211 227 -366 26 -79 28 -97 28 -240 0 -143 -2 -161 -28 -240 -52 -155 -117 -261 -227 -366 -157 -149 -327 -222 -539 -231 -248 -11 -464 71 -635 242 -283 283 -326 735 -102 1065 73 107 209 226 322 282 133 66 237 88 400 84 109 -3 144 -8 215 -31z"/>
 <path d="M3813 1469 c-94 -12 -184 -83 -226 -177 -27 -62 -26 -173 1 -234 27 -63 84 -122 145 -152 73 -37 191 -37 264 0 106 52 162 144 163 265 0 65 -4 85 -31 137 -59 120 -176 179 -316 161z"/>
 </g>

</svg>